<svg width="1035" height="51" viewBox="0 0 1035 51" fill="none" xmlns="http://www.w3.org/2000/svg">
<path d="M0.45875 51V0.599998H11.3088V20.34H41.0588V0.599998H51.9088V51H41.0588V31.26H11.3088V51H0.45875ZM60.0698 51V10.96C60.0698 8.11333 61.0731 5.68666 63.0798 3.68C65.1331 1.62666 67.5831 0.599998 70.4298 0.599998H100.04C102.886 0.599998 105.336 1.62666 107.39 3.68C109.443 5.68666 110.47 8.11333 110.47 10.96V51H99.4798V34.76H70.9198V51H60.0698ZM70.9198 23.84H99.4798V13.83C99.4798 12.29 99.4798 11.52 99.4798 11.52C99.4798 11.52 98.7098 11.52 97.1698 11.52H73.2298C71.6898 11.52 70.9198 11.52 70.9198 11.52C70.9198 11.52 70.9198 12.29 70.9198 13.83V23.84ZM118.445 51V0.669997H158.415C161.262 0.669997 163.712 1.69666 165.765 3.75C167.819 5.80333 168.845 8.23 168.845 11.03V24.05C168.845 26.85 167.819 29.2767 165.765 31.33C163.712 33.3833 161.262 34.41 158.415 34.41L129.295 34.48V51H118.445ZM131.605 23.49H155.545C157.085 23.49 157.855 23.49 157.855 23.49C157.855 23.49 157.855 22.72 157.855 21.18V13.83C157.855 12.29 157.855 11.52 157.855 11.52C157.855 11.52 157.085 11.52 155.545 11.52H131.605C130.065 11.52 129.295 11.52 129.295 11.52C129.295 11.52 129.295 12.29 129.295 13.83V21.18C129.295 22.72 129.295 23.49 129.295 23.49C129.295 23.49 130.065 23.49 131.605 23.49ZM173.816 51V0.669997H213.786C216.633 0.669997 219.083 1.69666 221.136 3.75C223.19 5.80333 224.216 8.23 224.216 11.03V24.05C224.216 26.85 223.19 29.2767 221.136 31.33C219.083 33.3833 216.633 34.41 213.786 34.41L184.666 34.48V51H173.816ZM186.976 23.49H210.916C212.456 23.49 213.226 23.49 213.226 23.49C213.226 23.49 213.226 22.72 213.226 21.18V13.83C213.226 12.29 213.226 11.52 213.226 11.52C213.226 11.52 212.456 11.52 210.916 11.52H186.976C185.436 11.52 184.666 11.52 184.666 11.52C184.666 11.52 184.666 12.29 184.666 13.83V21.18C184.666 22.72 184.666 23.49 184.666 23.49C184.666 23.49 185.436 23.49 186.976 23.49ZM249.768 51V32.17L226.458 0.599998H239.408L255.228 20.48L270.978 0.599998H284.068L260.688 32.24V51H249.768ZM308.353 51V0.599998H346.433C349.233 0.599998 351.659 1.62666 353.713 3.68C355.766 5.68666 356.793 8.11333 356.793 10.96V20.41C356.793 21.0167 356.746 21.6 356.653 22.16C356.606 22.6733 356.489 23.1633 356.303 23.63C357.003 24.5167 357.586 25.5433 358.053 26.71C358.519 27.8767 358.753 29.0433 358.753 30.21V40.64C358.753 43.4867 357.726 45.9367 355.673 47.99C353.619 49.9967 351.169 51 348.323 51H308.353ZM321.513 40.08H345.453C346.993 40.08 347.763 40.08 347.763 40.08C347.763 40.08 347.763 39.31 347.763 37.77V33.15C347.763 31.61 347.763 30.84 347.763 30.84C347.763 30.84 346.993 30.84 345.453 30.84H321.513C319.973 30.84 319.203 30.84 319.203 30.84C319.203 30.84 319.203 31.61 319.203 33.15V37.77C319.203 39.31 319.203 40.08 319.203 40.08C319.203 40.08 319.973 40.08 321.513 40.08ZM321.513 19.92H343.493C345.033 19.92 345.803 19.92 345.803 19.92C345.803 19.92 345.803 19.15 345.803 17.61V13.83C345.803 12.29 345.803 11.52 345.803 11.52C345.803 11.52 345.033 11.52 343.493 11.52H321.513C319.973 11.52 319.203 11.52 319.203 11.52C319.203 11.52 319.203 12.29 319.203 13.83V17.61C319.203 19.15 319.203 19.92 319.203 19.92C319.203 19.92 319.973 19.92 321.513 19.92ZM366.105 51V0.599998H376.815V51H366.105ZM381.286 51V0.669997H421.256C424.102 0.669997 426.552 1.69666 428.606 3.75C430.659 5.80333 431.686 8.23 431.686 11.03V24.05C431.686 26.85 430.659 29.2767 428.606 31.33C426.552 33.3833 424.102 34.41 421.256 34.41H420.766L431.686 47.29V51H420.486L406.556 34.41L392.136 34.48V51H381.286ZM394.446 23.49H418.386C419.926 23.49 420.696 23.49 420.696 23.49C420.696 23.49 420.696 22.72 420.696 21.18V13.83C420.696 12.29 420.696 11.52 420.696 11.52C420.696 11.52 419.926 11.52 418.386 11.52H394.446C392.906 11.52 392.136 11.52 392.136 11.52C392.136 11.52 392.136 12.29 392.136 13.83V21.18C392.136 22.72 392.136 23.49 392.136 23.49C392.136 23.49 392.906 23.49 394.446 23.49ZM456.339 51V11.52H436.599V0.599998H486.999V11.52H467.259V51H456.339ZM492.304 51V0.599998H503.154V20.34H532.904V0.599998H543.754V51H532.904V31.26H503.154V51H492.304ZM551.915 51V0.599998H591.885C594.732 0.599998 597.182 1.62666 599.235 3.68C601.289 5.68666 602.315 8.11333 602.315 10.96V40.64C602.315 43.4867 601.289 45.9367 599.235 47.99C597.182 49.9967 594.732 51 591.885 51H551.915ZM565.075 40.08H589.015C590.555 40.08 591.325 40.08 591.325 40.08C591.325 40.08 591.325 39.31 591.325 37.77V13.83C591.325 12.29 591.325 11.52 591.325 11.52C591.325 11.52 590.555 11.52 589.015 11.52H565.075C563.535 11.52 562.765 11.52 562.765 11.52C562.765 11.52 562.765 12.29 562.765 13.83V37.77C562.765 39.31 562.765 40.08 562.765 40.08C562.765 40.08 563.535 40.08 565.075 40.08ZM610.294 51V10.96C610.294 8.11333 611.298 5.68666 613.304 3.68C615.358 1.62666 617.808 0.599998 620.654 0.599998H650.264C653.111 0.599998 655.561 1.62666 657.614 3.68C659.668 5.68666 660.694 8.11333 660.694 10.96V51H649.704V34.76H621.144V51H610.294ZM621.144 23.84H649.704V13.83C649.704 12.29 649.704 11.52 649.704 11.52C649.704 11.52 648.934 11.52 647.394 11.52H623.454C621.914 11.52 621.144 11.52 621.144 11.52C621.144 11.52 621.144 12.29 621.144 13.83V23.84ZM687.746 51V32.17L664.436 0.599998H677.386L693.206 20.48L708.956 0.599998H722.046L698.666 32.24V51H687.746ZM756.341 51C753.495 51 751.045 49.9967 748.991 47.99C746.985 45.9367 745.981 43.4867 745.981 40.64V35.95H756.831V37.77C756.831 39.31 756.831 40.08 756.831 40.08C756.831 40.08 757.601 40.08 759.141 40.08H783.081C784.621 40.08 785.391 40.08 785.391 40.08C785.391 40.08 785.391 39.31 785.391 37.77V33.57C785.391 32.03 785.391 31.26 785.391 31.26C785.391 31.26 784.621 31.26 783.081 31.26H756.341C753.495 31.26 751.045 30.2567 748.991 28.25C746.985 26.1967 745.981 23.7467 745.981 20.9V10.96C745.981 8.11333 746.985 5.68666 748.991 3.68C751.045 1.62666 753.495 0.599998 756.341 0.599998H786.021C788.821 0.599998 791.248 1.62666 793.301 3.68C795.355 5.68666 796.381 8.11333 796.381 10.96V15.65H785.391V13.83C785.391 12.29 785.391 11.52 785.391 11.52C785.391 11.52 784.621 11.52 783.081 11.52H759.141C757.601 11.52 756.831 11.52 756.831 11.52C756.831 11.52 756.831 12.29 756.831 13.83V18.03C756.831 19.57 756.831 20.34 756.831 20.34C756.831 20.34 757.601 20.34 759.141 20.34H786.021C788.821 20.34 791.248 21.3667 793.301 23.42C795.355 25.4267 796.381 27.8533 796.381 30.7V40.64C796.381 43.4867 795.355 45.9367 793.301 47.99C791.248 49.9967 788.821 51 786.021 51H756.341ZM804.23 51V0.599998H850.78V11.52H815.22V20.34H843.85V31.26H815.22V40.08H850.78V51H804.23ZM857.754 51V0.529999H868.604V40.08H908.154V51H857.754ZM912.374 51V0.599998H958.924V11.52H923.364V20.34H951.994V31.26H923.364V40.08H958.924V51H912.374ZM965.828 51V0.599998H977.028L1005.24 34.2V0.599998H1016.23V51H1005.03L976.678 17.26V51H965.828ZM1024.21 36.93V0.599998H1034.92V36.93H1024.21ZM1024.21 51V40.29H1034.92V51H1024.21Z" fill="#C61AB4"/>
</svg>
